<svg xmlns="http://www.w3.org/2000/svg" xmlns:xlink="http://www.w3.org/1999/xlink" viewBox="0,0,256,256" width="32px" height="32px" fill-rule="nonzero"><g fill="#000000" fill-rule="nonzero" stroke="none" stroke-width="1" stroke-linecap="butt" stroke-linejoin="miter" stroke-miterlimit="10" stroke-dasharray="" stroke-dashoffset="0" font-family="none" font-weight="none" font-size="none" text-anchor="none" style="mix-blend-mode: normal"><g transform="scale(8,8)"><path d="M16,4c-5.11328,0 -9.38281,3.16016 -11.125,7.625l1.84375,0.75c1.45703,-3.73437 4.99219,-6.375 9.28125,-6.375c3.24219,0 6.13281,1.58984 7.9375,4h-3.9375v2h7v-7h-2v3.09375c-2.19141,-2.51172 -5.42969,-4.09375 -9,-4.09375zM25.28125,19.625c-1.45703,3.73438 -4.99219,6.375 -9.28125,6.375c-3.27734,0 -6.15625,-1.61328 -7.96875,-4h3.96875v-2h-7v7h2v-3.09375c2.1875,2.48047 5.39453,4.09375 9,4.09375c5.11328,0 9.38281,-3.16016 11.125,-7.625z"></path></g></g><g fill="#000000" fill-rule="nonzero" stroke="none" stroke-width="1" stroke-linecap="butt" stroke-linejoin="miter" stroke-miterlimit="10" stroke-dasharray="" stroke-dashoffset="0" font-family="none" font-weight="none" font-size="none" text-anchor="none" style="mix-blend-mode: normal"><g id="text"><path d="M136.795,141.165v0c0,-2.34667 -0.65333,-4.21333 -1.96,-5.6c-1.3,-1.39333 -3.51333,-2.67667 -6.64,-3.85c-3.12,-1.17333 -5.81333,-2.34 -8.08,-3.5c-2.26,-1.16 -4.2,-2.49333 -5.82,-4c-1.62,-1.5 -2.88,-3.26667 -3.78,-5.3c-0.9,-2.04 -1.35,-4.46333 -1.35,-7.27v0c0,-4.84 1.54667,-8.80667 4.64,-11.9c3.09333,-3.09333 7.20333,-4.89667 12.33,-5.41v0v-9.2h6.87v9.33c5.07333,0.71333 9.04333,2.82333 11.91,6.33c2.86,3.51333 4.29,8.06333 4.29,13.65v0h-12.41c0,-3.44 -0.71,-6.01333 -2.13,-7.72c-1.42,-1.7 -3.31667,-2.55 -5.69,-2.55v0c-2.35333,0 -4.17333,0.66333 -5.46,1.99c-1.29333,1.33333 -1.94,3.17667 -1.94,5.53v0c0,2.17333 0.63333,3.92 1.9,5.24c1.26,1.32 3.6,2.66667 7.02,4.04c3.42667,1.37333 6.24,2.67 8.44,3.89c2.20667,1.21333 4.07,2.58667 5.59,4.12c1.52,1.53333 2.68,3.28 3.48,5.24c0.8,1.96667 1.2,4.25333 1.2,6.86v0c0,4.86667 -1.51667,8.82 -4.55,11.86c-3.04,3.03333 -7.22333,4.82333 -12.55,5.37v0v8.55h-6.83v-8.51c-5.87333,-0.62667 -10.42,-2.71 -13.64,-6.25c-3.22667,-3.54 -4.84,-8.24667 -4.84,-14.12v0h12.42c0,3.41333 0.81,6.03 2.43,7.85c1.62,1.81333 3.94667,2.72 6.98,2.72v0c2.52,0 4.51,-0.66333 5.97,-1.99c1.46667,-1.33333 2.2,-3.13333 2.2,-5.4z"></path></g></g></svg>